<svg xmlns="http://www.w3.org/2000/svg" version="1.1" xmlns:xlink="http://www.w3.org/1999/xlink" xmlns:svgjs="http://svgjs.dev/svgjs" viewBox="0 0 800 800"><defs><filter id="uuunion-blur" x="-100%" y="-100%" width="400%" height="400%" color-interpolation-filters="sRGB">
        <feGaussianBlur in="SourceGraphic" stdDeviation="7.5 0" result="blur"></feGaussianBlur>
        <feDropShadow stdDeviation="12.307692307692308" in="blur" dx="10" dy="10" flood-color="hsl(230, 55%, 40%)" flood-opacity="0.25" x="0%" y="0%" width="100%" height="100%"></feDropShadow>
      </filter><filter id="uuunion-blur2" x="-100%" y="-100%" width="400%" height="400%" color-interpolation-filters="sRGB">
        <feGaussianBlur in="SourceGraphic" stdDeviation="7.5 0" result="blur"></feGaussianBlur>
        <feDropShadow stdDeviation="12.307692307692308" in="blur" dx="-10" dy="-10" flood-color="hsl(230, 55%, 40%)" flood-opacity="0.25" x="0%" y="0%" width="100%" height="100%"></feDropShadow>
      </filter><linearGradient gradientTransform="rotate(0, 0.5, 0.5)" x1="50%" y1="0%" x2="50%" y2="100%" id="uuunion-grad"><stop stop-color="hsl(230, 55%, 70%)" offset="10%"></stop><stop stop-color="hsl(230, 55%, 40%)" offset="90%"></stop></linearGradient><linearGradient gradientTransform="rotate(135, 0.5, 0.5)" x1="50%" y1="0%" x2="50%" y2="100%" id="uuunion-grad2"><stop stop-color="hsl(230, 55%, 70%)" offset="25%"></stop><stop stop-color="hsl(230, 55%, 40%)" offset="100%"></stop></linearGradient><linearGradient gradientTransform="rotate(333, 0.5, 0.5)" x1="50%" y1="0%" x2="50%" y2="100%" id="uuunion-grad3"><stop stop-color="hsl(230, 55%, 70%)" offset="0%"></stop><stop stop-color="hsl(230, 55%, 40%)" offset="75%"></stop></linearGradient></defs><path d="M-78.91 -78.97Q-64.3 -76.66 -49.69 -74.59 -35.08 -72.92 -20.47 -71.77 -5.85 -71.23 8.75 -71.34 23.36 -72.09 37.97 -73.42 52.58 -75.24 67.19 -77.41 81.8 -79.77 96.41 -82.15 111.02 -84.37 125.63 -86.26 140.24 -87.7 154.85 -88.56 169.46 -88.79 184.07 -88.37 198.68 -87.33 213.29 -85.75 227.9 -83.74 242.51 -81.46 257.12 -79.07 271.73 -76.74 286.34 -74.66 300.95 -72.97 315.56 -71.8 330.17 -71.24 344.78 -71.32 359.39 -72.05 374 -73.36 388.61 -75.16 403.22 -77.32 417.83 -79.68 432.44 -82.06 447.05 -84.29 461.66 -86.2 476.27 -87.65 490.88 -88.54 505.49 -88.79 520.1 -88.4 534.71 -87.38 549.32 -85.82 563.93 -83.82 578.54 -81.55 593.15 -79.16 607.76 -76.83 622.37 -74.73 636.98 -73.03 651.6 -71.84 666.21 -71.25 680.82 -71.31 695.43 -72.01 710.04 -73.3 724.65 -75.09 739.26 -77.24 753.87 -79.59 768.48 -81.97 783.09 -84.21 797.7 -86.13 812.31 -87.6 826.92 -88.51 841.53 -88.79 856.14 -88.42 857.89 -73.64 861.22 -58.85 865.89 -44.07 871.57 -29.28 877.85 -14.5 884.28 0.27 890.4 15.06 895.78 29.84 900.04 44.63 902.87 59.41 904.06 74.2 903.54 88.98 901.34 103.77 897.62 118.55 892.64 133.34 886.76 148.12 880.39 162.9 874 177.69 868.04 192.47 862.93 207.26 859.03 222.04 856.63 236.83 855.9 251.61 856.88 266.4 859.52 281.18 863.61 295.97 868.87 310.75 874.93 325.53 881.35 340.32 887.67 355.1 893.44 369.89 898.25 384.67 901.77 399.46 903.73 414.24 903.99 429.03 902.55 443.81 899.49 458.6 895.05 473.38 889.53 488.16 883.34 502.95 876.9 517.73 870.68 532.52 865.13 547.3 860.64 562.09 857.53 576.87 856.02 591.66 856.22 606.44 858.12 621.22 861.58 636.01 866.35 650.79 872.09 665.58 878.4 680.36 884.82 695.15 890.9 709.93 896.2 724.72 900.34 739.5 903.03 754.29 904.08 769.07 903.42 783.85 901.08 798.64 897.24 813.42 892.17 828.21 886.23 842.99 879.84 857.78 864.85 856.8 849.85 857.54 834.85 859.93 819.85 863.81 804.86 868.89 789.86 874.79 774.86 881.07 759.86 887.27 744.87 892.94 729.87 897.64 714.87 901.05 699.87 902.9 684.87 903.05 669.88 901.5 654.88 898.36 639.88 893.86 624.88 888.34 609.89 882.2 594.89 875.9 579.89 869.9 564.89 864.65 549.9 860.53 534.9 857.85 519.9 856.81 504.9 857.48 489.91 859.81 474.91 863.64 459.91 868.68 444.91 874.55 429.92 880.83 414.92 887.04 399.92 892.73 384.92 897.49 369.93 900.94 354.93 902.86 339.93 903.08 324.93 901.59 309.94 898.51 294.94 894.06 279.94 888.57 264.94 882.44 249.95 876.14 234.95 870.12 219.95 864.83 204.95 860.66 189.96 857.92 174.96 856.81 159.96 857.42 144.96 859.69 129.97 863.47 114.97 868.47 99.97 874.31 84.97 880.58 69.98 886.81 54.98 892.53 39.98 897.33 24.98 900.84 9.99 902.81 -5 903.1 -20 901.68 -35 898.65 -49.99 894.25 -64.99 888.79 -79.99 882.69 -80.28 867.66 -80.55 852.63 -80.78 837.61 -80.96 822.58 -81.06 807.56 -81.09 792.53 -81.05 777.5 -80.92 762.48 -80.73 747.45 -80.49 732.42 -80.22 717.4 -79.92 702.37 -79.63 687.35 -79.37 672.32 -79.15 657.29 -79 642.27 -78.91 627.24 -78.9 612.22 -78.97 597.19 -79.11 582.16 -79.32 567.14 -79.57 552.11 -79.85 537.09 -80.15 522.06 -80.43 507.03 -80.68 492.01 -80.89 476.98 -81.02 461.96 -81.09 446.93 -81.08 431.9 -80.99 416.88 -80.83 401.85 -80.61 386.82 -80.35 371.8 -80.06 356.77 -79.76 341.75 -79.49 326.72 -79.25 311.69 -79.06 296.67 -78.94 281.64 -78.9 266.62 -78.93 251.59 -79.04 236.56 -79.22 221.54 -79.45 206.51 -79.72 191.49 -80.01 176.46 -80.3 161.43 -80.57 146.41 -80.8 131.38 -80.97 116.35 -81.07 101.33 -81.09 86.3 -81.04 71.28 -80.91 56.25 -80.72 41.22 -80.47 26.2 -80.19 11.17 -79.9 -3.84 -79.61 -18.87 -79.35 -33.9 -79.14 -48.92 -78.99 -63.95 -78.91 -78.97" fill="url(#uuunion-grad)"></path><path d="M-78.91 -78.97Q-78.99 -63.95 -79.14 -48.92 -79.35 -33.9 -79.61 -18.87 -79.9 -3.84 -80.19 11.17 -80.47 26.2 -80.72 41.22 -80.91 56.25 -81.04 71.28 -81.09 86.3 -81.07 101.33 -80.97 116.35 -80.8 131.38 -80.57 146.41 -80.3 161.43 -80.01 176.46 -79.72 191.49 -79.45 206.51 -79.22 221.54 -79.04 236.56 -78.93 251.59 -78.9 266.62 -78.94 281.64 -79.06 296.67 -79.25 311.69 -79.49 326.72 -79.76 341.75 -80.06 356.77 -80.35 371.8 -80.61 386.82 -80.83 401.85 -70.63 404.69 -60.43 407.38 -50.23 409.83 -40.03 411.95 -29.83 413.67 -19.64 414.95 -0.52 415.92 2.78 415.98 15.39 409.1 27.94 401.45 40.41 393.1 52.81 384.17 65.13 374.81 77.37 365.17 89.53 355.44 101.61 345.79 113.63 336.4 125.58 327.42 137.47 318.99 149.31 311.21 161.12 304.15 172.91 297.84 184.68 292.28 196.46 287.43 208.26 283.19 220.09 279.47 231.97 276.12 243.91 272.99 255.93 269.93 268.05 266.76 280.27 263.34 292.6 259.51 305.06 255.17 317.65 250.22 330.39 244.61 343.26 238.3 356.28 231.32 369.44 223.71 382.75 215.55 396.18 206.94 409.75 198.01 423.43 188.9 437.21 179.76 451.08 170.74 465.01 161.98 479.01 153.6 493.03 145.7 507.06 138.37 521.07 131.64 535.05 125.54 548.97 120.04 562.81 115.1 576.54 110.65 590.14 106.58 603.59 102.77 616.87 99.1 629.96 95.44 642.85 91.65 655.52 87.6 667.96 83.2 680.16 78.35 692.13 72.98 703.85 67.07 715.34 60.6 726.59 53.59 737.62 46.1 748.43 38.19 759.05 29.96 769.49 21.51 779.78 12.95 789.94 4.42 800 -3.97 793.23 -21.36 787.12 -38.76 782.26 -56.15 779.12 -73.55 778 -90.94 779.01 -108.34 782.05 -125.74 786.83 -143.13 772.16 -141.08 757.48 -138.94 742.81 -136.88 728.14 -135.05 713.47 -133.58 698.8 -132.58 684.12 -132.12 669.45 -132.24 654.78 -132.92 640.11 -134.11 625.44 -135.74 610.76 -137.68 596.09 -139.79 581.42 -141.91 566.75 -143.89 552.08 -145.59 537.4 -146.88 522.73 -147.66 508.06 -147.89 493.39 -147.54 478.72 -146.64 464.04 -145.26 449.37 -143.49 434.7 -141.46 420.03 -139.33 405.35 -137.25 390.68 -135.37 376.01 -133.82 361.34 -132.73 346.67 -132.16 331.99 -132.17 317.32 -132.75 302.65 -133.86 287.98 -135.42 273.31 -137.31 258.63 -139.39 243.96 -141.52 229.29 -143.54 214.62 -145.3 199.95 -146.68 185.27 -147.56 170.6 -147.89 155.93 -147.65 141.26 -146.85 126.59 -145.54 111.91 -143.84 97.24 -141.85 82.57 -139.72 67.9 -137.62 53.22 -135.69 38.55 -134.07 23.88 -132.89 9.21 -132.22 -5.45 -132.13 -20.13 -132.6 -34.8 -133.62 -49.47 -135.1 -64.14 -136.94 -78.81 -139 -93.49 -141.14 -108.16 -143.19 -122.83 -145.01 -132.19 -132.96 -115.08 -114.41 -105.98 -105.7 -96.92 -96.87 -87.9 -87.95 -78.91 -78.97" fill="url(#uuunion-grad2)" filter="url(#uuunion-blur)"></path><path d="M816.66 393.64Q826.86 391.09 837.06 388.83 847.26 386.95 857.46 385.49 867.66 384.51 877.86 384.04 888.05 384.09 898.25 384.67 901.77 399.46 903.73 414.24 903.99 429.03 902.55 443.81 899.49 458.6 895.05 473.38 889.53 488.16 883.34 502.95 876.9 517.73 870.68 532.52 865.13 547.3 860.64 562.09 857.53 576.87 856.02 591.66 856.22 606.44 858.12 621.22 861.58 636.01 866.35 650.79 872.09 665.58 878.4 680.36 884.82 695.15 890.9 709.93 896.2 724.72 900.34 739.5 903.03 754.29 904.08 769.07 903.42 783.85 901.08 798.64 897.24 813.42 892.17 828.21 886.23 842.99 879.84 857.78 866.08 856.82 852.32 857.3 838.55 859.19 824.79 862.39 811.03 866.68 797.26 871.8 783.5 877.43 769.74 883.22 755.97 888.81 742.21 893.85 728.45 898.03 714.68 901.08 700.92 902.82 687.16 903.14 673.39 902.01 659.63 899.52 645.87 895.8 632.1 891.1 618.34 885.71 604.58 879.97 590.81 874.22 577.05 868.84 563.29 864.15 549.52 860.44 535.76 857.96 522 856.85 508.23 857.18 494.47 858.93 480.71 862 466.94 866.19 453.18 871.23 439.42 876.83 425.65 882.62 411.89 888.25 398.13 893.36 384.36 897.64 370.6 900.82 356.84 902.7 343.07 903.17 329.31 902.2 315.55 899.84 301.78 896.24 288.02 891.63 274.26 886.3 260.49 880.57 246.73 874.81 232.97 869.37 219.2 864.59 205.44 860.78 191.68 858.16 177.91 856.9 164.15 857.08 150.39 858.69 136.62 861.62 122.86 865.71 109.1 870.68 95.33 876.23 81.57 882.02 67.81 887.68 54.04 892.86 40.28 897.24 26.52 900.55 5.96 897.81 -0.66 882.89 -0.5 872.74 -0.36 862.59 -0.24 852.44 -0.14 842.29 0.19 827.07 0.98 822 13.82 815.09 26.65 807.09 39.45 798.11 52.21 788.28 64.92 777.81 77.57 766.9 90.15 755.82 102.66 744.79 115.09 734.08 127.42 723.9 139.67 714.45 151.83 705.89 163.89 698.33 175.87 691.82 187.76 686.38 199.58 681.95 211.33 678.43 223.02 675.67 234.67 673.48 246.28 671.65 257.88 669.95 269.48 668.15 281.09 666.02 292.73 663.34 304.42 659.95 316.17 655.7 328.01 650.5 339.95 644.31 351.99 637.12 364.17 629 376.48 620.05 388.95 610.43 401.57 600.3 414.35 589.87 427.31 579.37 440.43 569 453.72 558.98 467.17 549.5 480.78 540.71 494.54 532.75 508.43 525.69 522.44 519.56 536.56 514.35 550.76 510 565.03 506.39 579.33 503.39 593.66 500.81 607.97 498.48 622.25 496.19 636.46 493.72 650.59 490.9 664.61 487.55 678.49 483.52 692.2 478.71 705.73 473.05 719.05 466.53 732.15 459.16 745.01 451.02 757.62 442.2 769.96 432.86 782.04 423.14 793.85 413.24 811.03 398.5 816.66 393.64" fill="url(#uuunion-grad3)" filter="url(#uuunion-blur2)"></path></svg>